<?xml version="1.0" encoding="utf-8"?>
<!-- Generator: Adobe Illustrator 25.0.1, SVG Export Plug-In . SVG Version: 6.00 Build 0)  -->
<svg version="1.0" id="Layer_1" xmlns="http://www.w3.org/2000/svg" xmlns:xlink="http://www.w3.org/1999/xlink" x="0px" y="0px"
	 viewBox="0 0 358.7 255.6" style="enable-background:new 0 0 358.7 255.6;" xml:space="preserve">
<style type="text/css">
	.st0{fill:#010101;}
	.st1{fill:#A7A6A6;}
	.st2{fill:url(#SVGID_1_);}
	.st3{fill:url(#SVGID_2_);}
	.st4{fill:url(#SVGID_3_);}
	.st5{fill:url(#SVGID_4_);}
	.st6{opacity:0.2;fill:#010101;enable-background:new    ;}
	.st7{opacity:0.12;fill:#010101;enable-background:new    ;}
	.st8{opacity:0.25;fill:#FFFFFF;enable-background:new    ;}
</style>
<g>
	<path class="st0" d="M165.4,133.3c-2.1,0-3.9,1.8-3.9,4.2s1.8,4.2,3.9,4.2c2.1,0,3.9-1.8,3.9-4.2
		C169.3,134.9,167.5,133.3,165.4,133.3z M165.4,133.3c-2.1,0-3.9,1.8-3.9,4.2s1.8,4.2,3.9,4.2c2.1,0,3.9-1.8,3.9-4.2
		C169.3,134.9,167.5,133.3,165.4,133.3z M165.4,133.3c-2.1,0-3.9,1.8-3.9,4.2s1.8,4.2,3.9,4.2c2.1,0,3.9-1.8,3.9-4.2
		C169.3,134.9,167.5,133.3,165.4,133.3z M180.3,133.3c-2.1,0-3.9,1.8-3.9,4.2s1.8,4.2,3.9,4.2c2.1,0,3.9-1.8,3.9-4.2
		C184.2,134.9,182.4,133.3,180.3,133.3z M195.3,133.3c-2.1,0-3.9,1.8-3.9,4.2s1.8,4.2,3.9,4.2c2.1,0,3.7-1.8,3.7-4.2
		S197.3,133.3,195.3,133.3z M180.3,133.3c-2.1,0-3.9,1.8-3.9,4.2s1.8,4.2,3.9,4.2c2.1,0,3.9-1.8,3.9-4.2
		C184.2,134.9,182.4,133.3,180.3,133.3z M195.3,133.3c-2.1,0-3.9,1.8-3.9,4.2s1.8,4.2,3.9,4.2c2.1,0,3.7-1.8,3.7-4.2
		S197.3,133.3,195.3,133.3z M165.4,133.3c-2.1,0-3.9,1.8-3.9,4.2s1.8,4.2,3.9,4.2c2.1,0,3.9-1.8,3.9-4.2
		C169.3,134.9,167.5,133.3,165.4,133.3z M165.4,133.3c-2.1,0-3.9,1.8-3.9,4.2s1.8,4.2,3.9,4.2c2.1,0,3.9-1.8,3.9-4.2
		C169.3,134.9,167.5,133.3,165.4,133.3z M180.3,133.3c-2.1,0-3.9,1.8-3.9,4.2s1.8,4.2,3.9,4.2c2.1,0,3.9-1.8,3.9-4.2
		C184.2,134.9,182.4,133.3,180.3,133.3z M195.3,133.3c-2.1,0-3.9,1.8-3.9,4.2s1.8,4.2,3.9,4.2c2.1,0,3.7-1.8,3.7-4.2
		S197.3,133.3,195.3,133.3z M214.7,133.3c-1.4,0-3.5,1.4-3.5,4l6.1-2.6C216.9,133.9,215.8,133.3,214.7,133.3z M214.7,133.3
		c-1.4,0-3.5,1.4-3.5,4l6.1-2.6C216.9,133.9,215.8,133.3,214.7,133.3z M180.3,133.3c-2.1,0-3.9,1.8-3.9,4.2s1.8,4.2,3.9,4.2
		c2.1,0,3.9-1.8,3.9-4.2C184.2,134.9,182.4,133.3,180.3,133.3z M195.3,133.3c-2.1,0-3.9,1.8-3.9,4.2s1.8,4.2,3.9,4.2
		c2.1,0,3.7-1.8,3.7-4.2S197.3,133.3,195.3,133.3z M165.4,133.3c-2.1,0-3.9,1.8-3.9,4.2s1.8,4.2,3.9,4.2c2.1,0,3.9-1.8,3.9-4.2
		C169.3,134.9,167.5,133.3,165.4,133.3z M165.4,133.3c-2.1,0-3.9,1.8-3.9,4.2s1.8,4.2,3.9,4.2c2.1,0,3.9-1.8,3.9-4.2
		C169.3,134.9,167.5,133.3,165.4,133.3z M180.3,133.3c-2.1,0-3.9,1.8-3.9,4.2s1.8,4.2,3.9,4.2c2.1,0,3.9-1.8,3.9-4.2
		C184.2,134.9,182.4,133.3,180.3,133.3z M195.3,133.3c-2.1,0-3.9,1.8-3.9,4.2s1.8,4.2,3.9,4.2c2.1,0,3.7-1.8,3.7-4.2
		S197.3,133.3,195.3,133.3z M214.7,133.3c-1.4,0-3.5,1.4-3.5,4l6.1-2.6C216.9,133.9,215.8,133.3,214.7,133.3z M234.6,126.5h-4.3v6.9
		h4.3c2.1,0,3.4-1.8,3.5-3.5C238.1,128.5,236.8,126.5,234.6,126.5z M234.6,126.5h-4.3v6.9h4.3c2.1,0,3.4-1.8,3.5-3.5
		C238.1,128.5,236.8,126.5,234.6,126.5z M214.7,133.3c-1.4,0-3.5,1.4-3.5,4l6.1-2.6C216.9,133.9,215.8,133.3,214.7,133.3z
		 M180.3,133.3c-2.1,0-3.9,1.8-3.9,4.2s1.8,4.2,3.9,4.2c2.1,0,3.9-1.8,3.9-4.2C184.2,134.9,182.4,133.3,180.3,133.3z M195.3,133.3
		c-2.1,0-3.9,1.8-3.9,4.2s1.8,4.2,3.9,4.2c2.1,0,3.7-1.8,3.7-4.2S197.3,133.3,195.3,133.3z M165.4,133.3c-2.1,0-3.9,1.8-3.9,4.2
		s1.8,4.2,3.9,4.2c2.1,0,3.9-1.8,3.9-4.2C169.3,134.9,167.5,133.3,165.4,133.3z M165.4,133.3c-2.1,0-3.9,1.8-3.9,4.2
		s1.8,4.2,3.9,4.2c2.1,0,3.9-1.8,3.9-4.2C169.3,134.9,167.5,133.3,165.4,133.3z M180.3,133.3c-2.1,0-3.9,1.8-3.9,4.2
		s1.8,4.2,3.9,4.2c2.1,0,3.9-1.8,3.9-4.2C184.2,134.9,182.4,133.3,180.3,133.3z M195.3,133.3c-2.1,0-3.9,1.8-3.9,4.2
		s1.8,4.2,3.9,4.2c2.1,0,3.7-1.8,3.7-4.2S197.3,133.3,195.3,133.3z M214.7,133.3c-1.4,0-3.5,1.4-3.5,4l6.1-2.6
		C216.9,133.9,215.8,133.3,214.7,133.3z M234.6,126.5h-4.3v6.9h4.3c2.1,0,3.4-1.8,3.5-3.5C238.1,128.5,236.8,126.5,234.6,126.5z
		 M253.5,137.8c-1.4,0-3.2,0.5-3.2,2.1c0,1.3,1.4,1.8,2.4,1.8c1.6,0,3.2-1.3,3.5-3.2C255.4,138.1,254.8,137.8,253.5,137.8z
		 M253.5,137.8c-1.4,0-3.2,0.5-3.2,2.1c0,1.3,1.4,1.8,2.4,1.8c1.6,0,3.2-1.3,3.5-3.2C255.4,138.1,254.8,137.8,253.5,137.8z
		 M234.6,126.5h-4.3v6.9h4.3c2.1,0,3.4-1.8,3.5-3.5C238.1,128.5,236.8,126.5,234.6,126.5z M214.7,133.3c-1.4,0-3.5,1.4-3.5,4
		l6.1-2.6C216.9,133.9,215.8,133.3,214.7,133.3z M180.3,133.3c-2.1,0-3.9,1.8-3.9,4.2s1.8,4.2,3.9,4.2c2.1,0,3.9-1.8,3.9-4.2
		C184.2,134.9,182.4,133.3,180.3,133.3z M195.3,133.3c-2.1,0-3.9,1.8-3.9,4.2s1.8,4.2,3.9,4.2c2.1,0,3.7-1.8,3.7-4.2
		S197.3,133.3,195.3,133.3z M165.4,133.3c-2.1,0-3.9,1.8-3.9,4.2s1.8,4.2,3.9,4.2c2.1,0,3.9-1.8,3.9-4.2
		C169.3,134.9,167.5,133.3,165.4,133.3z M165.4,133.3c-2.1,0-3.9,1.8-3.9,4.2s1.8,4.2,3.9,4.2c2.1,0,3.9-1.8,3.9-4.2
		C169.3,134.9,167.5,133.3,165.4,133.3z M180.3,133.3c-2.1,0-3.9,1.8-3.9,4.2s1.8,4.2,3.9,4.2c2.1,0,3.9-1.8,3.9-4.2
		C184.2,134.9,182.4,133.3,180.3,133.3z M188.2,109c-0.6-0.6-1.6-1.1-2.6-1.1c-1,0-1.9,0.3-2.6,1.1c-0.6,0.6-1.1,1.6-1.1,2.7
		c0,1.1,0.3,2.1,1.1,2.7c0.6,0.6,1.6,1.1,2.6,1.1c1,0,1.9-0.3,2.6-1.1c0.6-0.6,1.1-1.6,1.1-2.7C189.3,110.7,189,109.7,188.2,109z
		 M195.3,133.3c-2.1,0-3.9,1.8-3.9,4.2s1.8,4.2,3.9,4.2c2.1,0,3.7-1.8,3.7-4.2S197.3,133.3,195.3,133.3z M214.7,133.3
		c-1.4,0-3.5,1.4-3.5,4l6.1-2.6C216.9,133.9,215.8,133.3,214.7,133.3z M234.6,126.5h-4.3v6.9h4.3c2.1,0,3.4-1.8,3.5-3.5
		C238.1,128.5,236.8,126.5,234.6,126.5z M253.5,137.8c-1.4,0-3.2,0.5-3.2,2.1c0,1.3,1.4,1.8,2.4,1.8c1.6,0,3.2-1.3,3.5-3.2
		C255.4,138.1,254.8,137.8,253.5,137.8z M253.5,137.8c-1.4,0-3.2,0.5-3.2,2.1c0,1.3,1.4,1.8,2.4,1.8c1.6,0,3.2-1.3,3.5-3.2
		C255.4,138.1,254.8,137.8,253.5,137.8z M234.6,126.5h-4.3v6.9h4.3c2.1,0,3.4-1.8,3.5-3.5C238.1,128.5,236.8,126.5,234.6,126.5z
		 M214.7,133.3c-1.4,0-3.5,1.4-3.5,4l6.1-2.6C216.9,133.9,215.8,133.3,214.7,133.3z M180.3,133.3c-2.1,0-3.9,1.8-3.9,4.2
		s1.8,4.2,3.9,4.2c2.1,0,3.9-1.8,3.9-4.2C184.2,134.9,182.4,133.3,180.3,133.3z M188.2,109c-0.6-0.6-1.6-1.1-2.6-1.1
		c-1,0-1.9,0.3-2.6,1.1c-0.6,0.6-1.1,1.6-1.1,2.7c0,1.1,0.3,2.1,1.1,2.7c0.6,0.6,1.6,1.1,2.6,1.1c1,0,1.9-0.3,2.6-1.1
		c0.6-0.6,1.1-1.6,1.1-2.7C189.3,110.7,189,109.7,188.2,109z M195.3,133.3c-2.1,0-3.9,1.8-3.9,4.2s1.8,4.2,3.9,4.2
		c2.1,0,3.7-1.8,3.7-4.2S197.3,133.3,195.3,133.3z M165.4,133.3c-2.1,0-3.9,1.8-3.9,4.2s1.8,4.2,3.9,4.2c2.1,0,3.9-1.8,3.9-4.2
		C169.3,134.9,167.5,133.3,165.4,133.3z M165.4,133.3c-2.1,0-3.9,1.8-3.9,4.2s1.8,4.2,3.9,4.2c2.1,0,3.9-1.8,3.9-4.2
		C169.3,134.9,167.5,133.3,165.4,133.3z M180.3,133.3c-2.1,0-3.9,1.8-3.9,4.2s1.8,4.2,3.9,4.2c2.1,0,3.9-1.8,3.9-4.2
		C184.2,134.9,182.4,133.3,180.3,133.3z M188.2,109c-0.6-0.6-1.6-1.1-2.6-1.1c-1,0-1.9,0.3-2.6,1.1c-0.6,0.6-1.1,1.6-1.1,2.7
		c0,1.1,0.3,2.1,1.1,2.7c0.6,0.6,1.6,1.1,2.6,1.1c1,0,1.9-0.3,2.6-1.1c0.6-0.6,1.1-1.6,1.1-2.7C189.3,110.7,189,109.7,188.2,109z
		 M195.3,133.3c-2.1,0-3.9,1.8-3.9,4.2s1.8,4.2,3.9,4.2c2.1,0,3.7-1.8,3.7-4.2S197.3,133.3,195.3,133.3z M214.7,133.3
		c-1.4,0-3.5,1.4-3.5,4l6.1-2.6C216.9,133.9,215.8,133.3,214.7,133.3z M234.6,126.5h-4.3v6.9h4.3c2.1,0,3.4-1.8,3.5-3.5
		C238.1,128.5,236.8,126.5,234.6,126.5z M253.5,137.8c-1.4,0-3.2,0.5-3.2,2.1c0,1.3,1.4,1.8,2.4,1.8c1.6,0,3.2-1.3,3.5-3.2
		C255.4,138.1,254.8,137.8,253.5,137.8z M253.5,137.8c-1.4,0-3.2,0.5-3.2,2.1c0,1.3,1.4,1.8,2.4,1.8c1.6,0,3.2-1.3,3.5-3.2
		C255.4,138.1,254.8,137.8,253.5,137.8z M234.6,126.5h-4.3v6.9h4.3c2.1,0,3.4-1.8,3.5-3.5C238.1,128.5,236.8,126.5,234.6,126.5z
		 M214.7,133.3c-1.4,0-3.5,1.4-3.5,4l6.1-2.6C216.9,133.9,215.8,133.3,214.7,133.3z M180.3,133.3c-2.1,0-3.9,1.8-3.9,4.2
		s1.8,4.2,3.9,4.2c2.1,0,3.9-1.8,3.9-4.2C184.2,134.9,182.4,133.3,180.3,133.3z M188.2,109c-0.6-0.6-1.6-1.1-2.6-1.1
		c-1,0-1.9,0.3-2.6,1.1c-0.6,0.6-1.1,1.6-1.1,2.7c0,1.1,0.3,2.1,1.1,2.7c0.6,0.6,1.6,1.1,2.6,1.1c1,0,1.9-0.3,2.6-1.1
		c0.6-0.6,1.1-1.6,1.1-2.7C189.3,110.7,189,109.7,188.2,109z M195.3,133.3c-2.1,0-3.9,1.8-3.9,4.2s1.8,4.2,3.9,4.2
		c2.1,0,3.7-1.8,3.7-4.2S197.3,133.3,195.3,133.3z M165.4,133.3c-2.1,0-3.9,1.8-3.9,4.2s1.8,4.2,3.9,4.2c2.1,0,3.9-1.8,3.9-4.2
		C169.3,134.9,167.5,133.3,165.4,133.3z M165.4,133.3c-2.1,0-3.9,1.8-3.9,4.2s1.8,4.2,3.9,4.2c2.1,0,3.9-1.8,3.9-4.2
		C169.3,134.9,167.5,133.3,165.4,133.3z M180.3,133.3c-2.1,0-3.9,1.8-3.9,4.2s1.8,4.2,3.9,4.2c2.1,0,3.9-1.8,3.9-4.2
		C184.2,134.9,182.4,133.3,180.3,133.3z M188.2,109c-0.6-0.6-1.6-1.1-2.6-1.1c-1,0-1.9,0.3-2.6,1.1c-0.6,0.6-1.1,1.6-1.1,2.7
		c0,1.1,0.3,2.1,1.1,2.7c0.6,0.6,1.6,1.1,2.6,1.1c1,0,1.9-0.3,2.6-1.1c0.6-0.6,1.1-1.6,1.1-2.7C189.3,110.7,189,109.7,188.2,109z
		 M195.3,133.3c-2.1,0-3.9,1.8-3.9,4.2s1.8,4.2,3.9,4.2c2.1,0,3.7-1.8,3.7-4.2S197.3,133.3,195.3,133.3z M214.7,133.3
		c-1.4,0-3.5,1.4-3.5,4l6.1-2.6C216.9,133.9,215.8,133.3,214.7,133.3z M234.6,126.5h-4.3v6.9h4.3c2.1,0,3.4-1.8,3.5-3.5
		C238.1,128.5,236.8,126.5,234.6,126.5z M253.5,137.8c-1.4,0-3.2,0.5-3.2,2.1c0,1.3,1.4,1.8,2.4,1.8c1.6,0,3.2-1.3,3.5-3.2
		C255.4,138.1,254.8,137.8,253.5,137.8z M253.5,137.8c-1.4,0-3.2,0.5-3.2,2.1c0,1.3,1.4,1.8,2.4,1.8c1.6,0,3.2-1.3,3.5-3.2
		C255.4,138.1,254.8,137.8,253.5,137.8z M234.6,126.5h-4.3v6.9h4.3c2.1,0,3.4-1.8,3.5-3.5C238.1,128.5,236.8,126.5,234.6,126.5z
		 M214.7,133.3c-1.4,0-3.5,1.4-3.5,4l6.1-2.6C216.9,133.9,215.8,133.3,214.7,133.3z M180.3,133.3c-2.1,0-3.9,1.8-3.9,4.2
		s1.8,4.2,3.9,4.2c2.1,0,3.9-1.8,3.9-4.2C184.2,134.9,182.4,133.3,180.3,133.3z M188.2,109c-0.6-0.6-1.6-1.1-2.6-1.1
		c-1,0-1.9,0.3-2.6,1.1c-0.6,0.6-1.1,1.6-1.1,2.7c0,1.1,0.3,2.1,1.1,2.7c0.6,0.6,1.6,1.1,2.6,1.1c1,0,1.9-0.3,2.6-1.1
		c0.6-0.6,1.1-1.6,1.1-2.7C189.3,110.7,189,109.7,188.2,109z M195.3,133.3c-2.1,0-3.9,1.8-3.9,4.2s1.8,4.2,3.9,4.2
		c2.1,0,3.7-1.8,3.7-4.2S197.3,133.3,195.3,133.3z M165.4,133.3c-2.1,0-3.9,1.8-3.9,4.2s1.8,4.2,3.9,4.2c2.1,0,3.9-1.8,3.9-4.2
		C169.3,134.9,167.5,133.3,165.4,133.3z M287.6,103.5c0-0.1,0-0.1,0-0.2c-0.2-4.1-3.3-7.3-7.4-7.6c-0.1,0-0.1,0-0.2,0
		c-0.1,0-0.3,0-0.4,0H79.1c-0.1,0-0.3,0-0.4,0c-0.1,0-0.1,0-0.2,0c-4.1,0.3-7.2,3.5-7.4,7.6c0,0.1,0,0.1,0,0.2s0,0.1,0,0.2v48.1
		c0,4.5,3.5,8,8,8h200.5c4.5,0,8-3.5,8-8v-48.1C287.6,103.7,287.6,103.6,287.6,103.5z M139.9,114.7c0.8,0.6,1.6,1.1,2.6,1.1
		c1.1,0,1.9-0.3,2.7-1.1c0.5-0.5,0.8-1.1,0.8-1.9h-3.5v-1.3h4.7v0.6c0,1.3-0.3,2.4-1.1,3.2c-1,1-2.1,1.4-3.5,1.4
		c-1.4,0-2.6-0.5-3.5-1.4c-1-1-1.4-2.1-1.4-3.5c0-1.4,0.5-2.6,1.4-3.5c1-1,2.1-1.4,3.5-1.4c0.6,0,1.3,0.2,1.9,0.5s1.1,0.6,1.4,1.1
		l-0.8,0.8c-0.6-0.8-1.4-1.1-2.6-1.1c-1,0-1.9,0.3-2.6,1.1c-0.8,0.6-1.1,1.6-1.1,2.7C138.8,113.1,139.1,114,139.9,114.7z
		 M147.8,123.2c3.2,0,5.4,1.3,7.2,2.9l-2.1,2.1c-1.3-1.1-3.1-2.1-5.3-2.1c-4.2,0-7.5,3.4-7.5,7.7s3.2,7.7,7.5,7.7
		c2.7,0,4.3-1.1,5.3-2.1c0.8-0.8,1.4-2.1,1.6-3.7h-6.9v-2.9h9.9c0.2,0.5,0.2,1.1,0.2,1.8c0,2.1-0.6,4.8-2.6,6.7
		c-1.9,2.1-4.2,3.1-7.4,3.1c-5.8,0-10.8-4.8-10.8-10.6C137,128,142,123.2,147.8,123.2z M154.2,111.1v1.1h-4v3.1h4.3v1.3h-5.6V107
		h5.6v1.1h-4.3v3.1C150.2,111.1,154.2,111.1,154.2,111.1z M172.3,137.6c0,4-3.1,6.9-6.9,6.9c-3.9,0-6.9-3.1-6.9-6.9
		c0-4,3.1-6.9,6.9-6.9C169.3,130.7,172.3,133.4,172.3,137.6z M167.2,116.6V107h1.3v9.6H167.2z M195.1,130.5c1.6,0,2.9,0.8,3.7,1.6
		V131h2.9v12.2c0,5-2.9,7.1-6.4,7.1c-3.4,0-5.3-2.2-6.1-4l2.6-1.1c0.3,1.1,1.6,2.4,3.4,2.4c2.2,0,3.7-1.4,3.7-4v-1h-0.2
		c-0.6,0.8-1.9,1.6-3.5,1.6c-3.5,0-6.6-2.9-6.6-6.7C188.5,133.6,191.7,130.5,195.1,130.5z M192.4,116.6V107h1.4l4.6,7.5V107h1.3v9.6
		h-1.3l-5-7.9v7.9H192.4z M189.2,115.3c-1,1-2.1,1.4-3.5,1.4s-2.6-0.5-3.5-1.4c-1-1-1.4-2.1-1.4-3.5c0-1.4,0.5-2.6,1.4-3.5
		s2.1-1.4,3.5-1.4c1.4,0,2.6,0.5,3.5,1.4c1,1,1.4,2.1,1.4,3.5C190.6,113.2,190.1,114.3,189.2,115.3z M187.2,137.6
		c0,4-3.1,6.9-6.9,6.9c-3.9,0-6.9-3.1-6.9-6.9c0-4,3.1-6.9,6.9-6.9C184.2,130.7,187.2,133.4,187.2,137.6z M176.5,108.1h-2.7v8.5
		h-1.1v-8.5h-2.7V107h6.6L176.5,108.1L176.5,108.1z M162.5,108.1h-2.7v8.5h-1.3v-8.5h-2.7V107h6.7V108.1z M203.6,143.9v-20.1h3.1
		v20.1H203.6z M215,141.8c1.6,0,2.6-0.8,3.4-1.9l2.2,1.6c-0.6,1.1-2.6,3.1-5.6,3.1c-3.9,0-6.7-3.1-6.7-6.9c0-4.2,2.9-6.9,6.4-6.9
		s5.1,2.7,5.8,4.3l0.3,0.8l-9.1,3.9C212.4,141.1,213.4,141.8,215,141.8z M227.2,143.9v-20.1h7.2c3.4,0,6.6,2.4,6.6,6.3
		c0,3.9-3.2,6.3-6.6,6.3h-4.2v7.5L227.2,143.9L227.2,143.9z M242.6,143.9v-20.1h3.1v20.1H242.6z M253.2,133.3
		c-1.1,0-2.1,0.3-2.7,1.4l-2.7-1.1c0.8-2.1,3.1-3.1,5.3-3.1c3.4,0,6.1,2.1,6.4,5.6v7.7h-2.9v-1.6h-0.2c-0.8,1-1.8,1.9-3.9,1.9
		c-2.6,0-5-1.8-5-4.5c0-2.9,2.9-4.5,5.8-4.5c1.3,0,2.6,0.5,3.1,0.8v-0.2C256.2,134.2,254.8,133.3,253.2,133.3z M264.5,150h-3.1
		l3.1-6.7l-5.3-12.2h3.2l3.5,8.7h0.2l3.4-8.7h3.2L264.5,150z M250.3,139.8c0,1.3,1.4,1.8,2.4,1.8c1.6,0,3.2-1.3,3.5-3.2
		c-0.8-0.3-1.4-0.6-2.7-0.6C252,137.8,250.3,138.2,250.3,139.8z M238.1,129.9c0-1.4-1.3-3.4-3.5-3.4h-4.3v6.9h4.3
		C236.6,133.4,237.9,131.7,238.1,129.9z M214.7,133.3c-1.4,0-3.5,1.4-3.5,4l6.1-2.6C216.9,133.9,215.8,133.3,214.7,133.3z
		 M195.3,141.6c2.1,0,3.7-1.8,3.7-4.2s-1.6-4.2-3.7-4.2s-3.9,1.8-3.9,4.2S193.2,141.6,195.3,141.6z M188.2,109
		c-0.6-0.6-1.6-1.1-2.6-1.1c-1,0-1.9,0.3-2.6,1.1c-0.6,0.6-1.1,1.6-1.1,2.7c0,1.1,0.3,2.1,1.1,2.7c0.6,0.6,1.6,1.1,2.6,1.1
		c1,0,1.9-0.3,2.6-1.1c0.6-0.6,1.1-1.6,1.1-2.7C189.3,110.7,189,109.7,188.2,109z M176.5,137.4c0,2.4,1.8,4.2,3.9,4.2
		c2.1,0,3.9-1.8,3.9-4.2c0-2.6-1.8-4.2-3.9-4.2C178.3,133.3,176.5,135,176.5,137.4z M161.6,137.4c0,2.4,1.8,4.2,3.9,4.2
		c2.1,0,3.9-1.8,3.9-4.2c0-2.6-1.8-4.2-3.9-4.2C163.3,133.3,161.6,135,161.6,137.4z M165.4,133.3c-2.1,0-3.9,1.8-3.9,4.2
		s1.8,4.2,3.9,4.2c2.1,0,3.9-1.8,3.9-4.2C169.3,134.9,167.5,133.3,165.4,133.3z M195.3,133.3c-2.1,0-3.9,1.8-3.9,4.2
		s1.8,4.2,3.9,4.2c2.1,0,3.7-1.8,3.7-4.2S197.3,133.3,195.3,133.3z M188.2,109c-0.6-0.6-1.6-1.1-2.6-1.1c-1,0-1.9,0.3-2.6,1.1
		c-0.6,0.6-1.1,1.6-1.1,2.7c0,1.1,0.3,2.1,1.1,2.7c0.6,0.6,1.6,1.1,2.6,1.1c1,0,1.9-0.3,2.6-1.1c0.6-0.6,1.1-1.6,1.1-2.7
		C189.3,110.7,189,109.7,188.2,109z M180.3,133.3c-2.1,0-3.9,1.8-3.9,4.2s1.8,4.2,3.9,4.2c2.1,0,3.9-1.8,3.9-4.2
		C184.2,134.9,182.4,133.3,180.3,133.3z M214.7,133.3c-1.4,0-3.5,1.4-3.5,4l6.1-2.6C216.9,133.9,215.8,133.3,214.7,133.3z
		 M234.6,126.5h-4.3v6.9h4.3c2.1,0,3.4-1.8,3.5-3.5C238.1,128.5,236.8,126.5,234.6,126.5z M253.5,137.8c-1.4,0-3.2,0.5-3.2,2.1
		c0,1.3,1.4,1.8,2.4,1.8c1.6,0,3.2-1.3,3.5-3.2C255.4,138.1,254.8,137.8,253.5,137.8z M253.5,137.8c-1.4,0-3.2,0.5-3.2,2.1
		c0,1.3,1.4,1.8,2.4,1.8c1.6,0,3.2-1.3,3.5-3.2C255.4,138.1,254.8,137.8,253.5,137.8z M234.6,126.5h-4.3v6.9h4.3
		c2.1,0,3.4-1.8,3.5-3.5C238.1,128.5,236.8,126.5,234.6,126.5z M214.7,133.3c-1.4,0-3.5,1.4-3.5,4l6.1-2.6
		C216.9,133.9,215.8,133.3,214.7,133.3z M195.3,133.3c-2.1,0-3.9,1.8-3.9,4.2s1.8,4.2,3.9,4.2c2.1,0,3.7-1.8,3.7-4.2
		S197.3,133.3,195.3,133.3z M188.2,109c-0.6-0.6-1.6-1.1-2.6-1.1c-1,0-1.9,0.3-2.6,1.1c-0.6,0.6-1.1,1.6-1.1,2.7
		c0,1.1,0.3,2.1,1.1,2.7c0.6,0.6,1.6,1.1,2.6,1.1c1,0,1.9-0.3,2.6-1.1c0.6-0.6,1.1-1.6,1.1-2.7C189.3,110.7,189,109.7,188.2,109z
		 M180.3,133.3c-2.1,0-3.9,1.8-3.9,4.2s1.8,4.2,3.9,4.2c2.1,0,3.9-1.8,3.9-4.2C184.2,134.9,182.4,133.3,180.3,133.3z M165.4,133.3
		c-2.1,0-3.9,1.8-3.9,4.2s1.8,4.2,3.9,4.2c2.1,0,3.9-1.8,3.9-4.2C169.3,134.9,167.5,133.3,165.4,133.3z M165.4,133.3
		c-2.1,0-3.9,1.8-3.9,4.2s1.8,4.2,3.9,4.2c2.1,0,3.9-1.8,3.9-4.2C169.3,134.9,167.5,133.3,165.4,133.3z M195.3,133.3
		c-2.1,0-3.9,1.8-3.9,4.2s1.8,4.2,3.9,4.2c2.1,0,3.7-1.8,3.7-4.2S197.3,133.3,195.3,133.3z M188.2,109c-0.6-0.6-1.6-1.1-2.6-1.1
		c-1,0-1.9,0.3-2.6,1.1c-0.6,0.6-1.1,1.6-1.1,2.7c0,1.1,0.3,2.1,1.1,2.7c0.6,0.6,1.6,1.1,2.6,1.1c1,0,1.9-0.3,2.6-1.1
		c0.6-0.6,1.1-1.6,1.1-2.7C189.3,110.7,189,109.7,188.2,109z M180.3,133.3c-2.1,0-3.9,1.8-3.9,4.2s1.8,4.2,3.9,4.2
		c2.1,0,3.9-1.8,3.9-4.2C184.2,134.9,182.4,133.3,180.3,133.3z M214.7,133.3c-1.4,0-3.5,1.4-3.5,4l6.1-2.6
		C216.9,133.9,215.8,133.3,214.7,133.3z M234.6,126.5h-4.3v6.9h4.3c2.1,0,3.4-1.8,3.5-3.5C238.1,128.5,236.8,126.5,234.6,126.5z
		 M253.5,137.8c-1.4,0-3.2,0.5-3.2,2.1c0,1.3,1.4,1.8,2.4,1.8c1.6,0,3.2-1.3,3.5-3.2C255.4,138.1,254.8,137.8,253.5,137.8z
		 M253.5,137.8c-1.4,0-3.2,0.5-3.2,2.1c0,1.3,1.4,1.8,2.4,1.8c1.6,0,3.2-1.3,3.5-3.2C255.4,138.1,254.8,137.8,253.5,137.8z
		 M234.6,126.5h-4.3v6.9h4.3c2.1,0,3.4-1.8,3.5-3.5C238.1,128.5,236.8,126.5,234.6,126.5z M214.7,133.3c-1.4,0-3.5,1.4-3.5,4
		l6.1-2.6C216.9,133.9,215.8,133.3,214.7,133.3z M195.3,133.3c-2.1,0-3.9,1.8-3.9,4.2s1.8,4.2,3.9,4.2c2.1,0,3.7-1.8,3.7-4.2
		S197.3,133.3,195.3,133.3z M188.2,109c-0.6-0.6-1.6-1.1-2.6-1.1c-1,0-1.9,0.3-2.6,1.1c-0.6,0.6-1.1,1.6-1.1,2.7
		c0,1.1,0.3,2.1,1.1,2.7c0.6,0.6,1.6,1.1,2.6,1.1c1,0,1.9-0.3,2.6-1.1c0.6-0.6,1.1-1.6,1.1-2.7C189.3,110.7,189,109.7,188.2,109z
		 M180.3,133.3c-2.1,0-3.9,1.8-3.9,4.2s1.8,4.2,3.9,4.2c2.1,0,3.9-1.8,3.9-4.2C184.2,134.9,182.4,133.3,180.3,133.3z M165.4,133.3
		c-2.1,0-3.9,1.8-3.9,4.2s1.8,4.2,3.9,4.2c2.1,0,3.9-1.8,3.9-4.2C169.3,134.9,167.5,133.3,165.4,133.3z M165.4,133.3
		c-2.1,0-3.9,1.8-3.9,4.2s1.8,4.2,3.9,4.2c2.1,0,3.9-1.8,3.9-4.2C169.3,134.9,167.5,133.3,165.4,133.3z M195.3,133.3
		c-2.1,0-3.9,1.8-3.9,4.2s1.8,4.2,3.9,4.2c2.1,0,3.7-1.8,3.7-4.2S197.3,133.3,195.3,133.3z M188.2,109c-0.6-0.6-1.6-1.1-2.6-1.1
		c-1,0-1.9,0.3-2.6,1.1c-0.6,0.6-1.1,1.6-1.1,2.7c0,1.1,0.3,2.1,1.1,2.7c0.6,0.6,1.6,1.1,2.6,1.1c1,0,1.9-0.3,2.6-1.1
		c0.6-0.6,1.1-1.6,1.1-2.7C189.3,110.7,189,109.7,188.2,109z M180.3,133.3c-2.1,0-3.9,1.8-3.9,4.2s1.8,4.2,3.9,4.2
		c2.1,0,3.9-1.8,3.9-4.2C184.2,134.9,182.4,133.3,180.3,133.3z M214.7,133.3c-1.4,0-3.5,1.4-3.5,4l6.1-2.6
		C216.9,133.9,215.8,133.3,214.7,133.3z M234.6,126.5h-4.3v6.9h4.3c2.1,0,3.4-1.8,3.5-3.5C238.1,128.5,236.8,126.5,234.6,126.5z
		 M253.5,137.8c-1.4,0-3.2,0.5-3.2,2.1c0,1.3,1.4,1.8,2.4,1.8c1.6,0,3.2-1.3,3.5-3.2C255.4,138.1,254.8,137.8,253.5,137.8z
		 M253.5,137.8c-1.4,0-3.2,0.5-3.2,2.1c0,1.3,1.4,1.8,2.4,1.8c1.6,0,3.2-1.3,3.5-3.2C255.4,138.1,254.8,137.8,253.5,137.8z
		 M234.6,126.5h-4.3v6.9h4.3c2.1,0,3.4-1.8,3.5-3.5C238.1,128.5,236.8,126.5,234.6,126.5z M214.7,133.3c-1.4,0-3.5,1.4-3.5,4
		l6.1-2.6C216.9,133.9,215.8,133.3,214.7,133.3z M195.3,133.3c-2.1,0-3.9,1.8-3.9,4.2s1.8,4.2,3.9,4.2c2.1,0,3.7-1.8,3.7-4.2
		S197.3,133.3,195.3,133.3z M188.2,109c-0.6-0.6-1.6-1.1-2.6-1.1c-1,0-1.9,0.3-2.6,1.1c-0.6,0.6-1.1,1.6-1.1,2.7
		c0,1.1,0.3,2.1,1.1,2.7c0.6,0.6,1.6,1.1,2.6,1.1c1,0,1.9-0.3,2.6-1.1c0.6-0.6,1.1-1.6,1.1-2.7C189.3,110.7,189,109.7,188.2,109z
		 M180.3,133.3c-2.1,0-3.9,1.8-3.9,4.2s1.8,4.2,3.9,4.2c2.1,0,3.9-1.8,3.9-4.2C184.2,134.9,182.4,133.3,180.3,133.3z M165.4,133.3
		c-2.1,0-3.9,1.8-3.9,4.2s1.8,4.2,3.9,4.2c2.1,0,3.9-1.8,3.9-4.2C169.3,134.9,167.5,133.3,165.4,133.3z M165.4,133.3
		c-2.1,0-3.9,1.8-3.9,4.2s1.8,4.2,3.9,4.2c2.1,0,3.9-1.8,3.9-4.2C169.3,134.9,167.5,133.3,165.4,133.3z M195.3,133.3
		c-2.1,0-3.9,1.8-3.9,4.2s1.8,4.2,3.9,4.2c2.1,0,3.7-1.8,3.7-4.2S197.3,133.3,195.3,133.3z M180.3,133.3c-2.1,0-3.9,1.8-3.9,4.2
		s1.8,4.2,3.9,4.2c2.1,0,3.9-1.8,3.9-4.2C184.2,134.9,182.4,133.3,180.3,133.3z M214.7,133.3c-1.4,0-3.5,1.4-3.5,4l6.1-2.6
		C216.9,133.9,215.8,133.3,214.7,133.3z M234.6,126.5h-4.3v6.9h4.3c2.1,0,3.4-1.8,3.5-3.5C238.1,128.5,236.8,126.5,234.6,126.5z
		 M253.5,137.8c-1.4,0-3.2,0.5-3.2,2.1c0,1.3,1.4,1.8,2.4,1.8c1.6,0,3.2-1.3,3.5-3.2C255.4,138.1,254.8,137.8,253.5,137.8z
		 M253.5,137.8c-1.4,0-3.2,0.5-3.2,2.1c0,1.3,1.4,1.8,2.4,1.8c1.6,0,3.2-1.3,3.5-3.2C255.4,138.1,254.8,137.8,253.5,137.8z
		 M234.6,126.5h-4.3v6.9h4.3c2.1,0,3.4-1.8,3.5-3.5C238.1,128.5,236.8,126.5,234.6,126.5z M214.7,133.3c-1.4,0-3.5,1.4-3.5,4
		l6.1-2.6C216.9,133.9,215.8,133.3,214.7,133.3z M195.3,133.3c-2.1,0-3.9,1.8-3.9,4.2s1.8,4.2,3.9,4.2c2.1,0,3.7-1.8,3.7-4.2
		S197.3,133.3,195.3,133.3z M180.3,133.3c-2.1,0-3.9,1.8-3.9,4.2s1.8,4.2,3.9,4.2c2.1,0,3.9-1.8,3.9-4.2
		C184.2,134.9,182.4,133.3,180.3,133.3z M165.4,133.3c-2.1,0-3.9,1.8-3.9,4.2s1.8,4.2,3.9,4.2c2.1,0,3.9-1.8,3.9-4.2
		C169.3,134.9,167.5,133.3,165.4,133.3z M165.4,133.3c-2.1,0-3.9,1.8-3.9,4.2s1.8,4.2,3.9,4.2c2.1,0,3.9-1.8,3.9-4.2
		C169.3,134.9,167.5,133.3,165.4,133.3z M195.3,133.3c-2.1,0-3.9,1.8-3.9,4.2s1.8,4.2,3.9,4.2c2.1,0,3.7-1.8,3.7-4.2
		S197.3,133.3,195.3,133.3z M180.3,133.3c-2.1,0-3.9,1.8-3.9,4.2s1.8,4.2,3.9,4.2c2.1,0,3.9-1.8,3.9-4.2
		C184.2,134.9,182.4,133.3,180.3,133.3z M214.7,133.3c-1.4,0-3.5,1.4-3.5,4l6.1-2.6C216.9,133.9,215.8,133.3,214.7,133.3z
		 M234.6,126.5h-4.3v6.9h4.3c2.1,0,3.4-1.8,3.5-3.5C238.1,128.5,236.8,126.5,234.6,126.5z M234.6,126.5h-4.3v6.9h4.3
		c2.1,0,3.4-1.8,3.5-3.5C238.1,128.5,236.8,126.5,234.6,126.5z M214.7,133.3c-1.4,0-3.5,1.4-3.5,4l6.1-2.6
		C216.9,133.9,215.8,133.3,214.7,133.3z M195.3,133.3c-2.1,0-3.9,1.8-3.9,4.2s1.8,4.2,3.9,4.2c2.1,0,3.7-1.8,3.7-4.2
		S197.3,133.3,195.3,133.3z M180.3,133.3c-2.1,0-3.9,1.8-3.9,4.2s1.8,4.2,3.9,4.2c2.1,0,3.9-1.8,3.9-4.2
		C184.2,134.9,182.4,133.3,180.3,133.3z M165.4,133.3c-2.1,0-3.9,1.8-3.9,4.2s1.8,4.2,3.9,4.2c2.1,0,3.9-1.8,3.9-4.2
		C169.3,134.9,167.5,133.3,165.4,133.3z M165.4,133.3c-2.1,0-3.9,1.8-3.9,4.2s1.8,4.2,3.9,4.2c2.1,0,3.9-1.8,3.9-4.2
		C169.3,134.9,167.5,133.3,165.4,133.3z M195.3,133.3c-2.1,0-3.9,1.8-3.9,4.2s1.8,4.2,3.9,4.2c2.1,0,3.7-1.8,3.7-4.2
		S197.3,133.3,195.3,133.3z M180.3,133.3c-2.1,0-3.9,1.8-3.9,4.2s1.8,4.2,3.9,4.2c2.1,0,3.9-1.8,3.9-4.2
		C184.2,134.9,182.4,133.3,180.3,133.3z M195.3,133.3c-2.1,0-3.9,1.8-3.9,4.2s1.8,4.2,3.9,4.2c2.1,0,3.7-1.8,3.7-4.2
		S197.3,133.3,195.3,133.3z M180.3,133.3c-2.1,0-3.9,1.8-3.9,4.2s1.8,4.2,3.9,4.2c2.1,0,3.9-1.8,3.9-4.2
		C184.2,134.9,182.4,133.3,180.3,133.3z M165.4,133.3c-2.1,0-3.9,1.8-3.9,4.2s1.8,4.2,3.9,4.2c2.1,0,3.9-1.8,3.9-4.2
		C169.3,134.9,167.5,133.3,165.4,133.3z M165.4,133.3c-2.1,0-3.9,1.8-3.9,4.2s1.8,4.2,3.9,4.2c2.1,0,3.9-1.8,3.9-4.2
		C169.3,134.9,167.5,133.3,165.4,133.3z M180.3,133.3c-2.1,0-3.9,1.8-3.9,4.2s1.8,4.2,3.9,4.2c2.1,0,3.9-1.8,3.9-4.2
		C184.2,134.9,182.4,133.3,180.3,133.3z M180.3,133.3c-2.1,0-3.9,1.8-3.9,4.2s1.8,4.2,3.9,4.2c2.1,0,3.9-1.8,3.9-4.2
		C184.2,134.9,182.4,133.3,180.3,133.3z M165.4,133.3c-2.1,0-3.9,1.8-3.9,4.2s1.8,4.2,3.9,4.2c2.1,0,3.9-1.8,3.9-4.2
		C169.3,134.9,167.5,133.3,165.4,133.3z"/>
	<path class="st1" d="M287.6,103.5c0-0.1,0-0.1,0-0.2c-0.2-3.9-3.3-7.3-7.4-7.6c-0.1,0-0.1,0-0.2,0c-0.1,0-0.3,0-0.4,0H79.1
		c-0.1,0-0.3,0-0.4,0c-0.1,0-0.1,0-0.2,0c-4.1,0.3-7.2,3.6-7.4,7.6c0,0.1,0,0.1,0,0.2s0,0.1,0,0.2v48.1c0,4.5,3.5,8,8,8h200.5
		c4.5,0,8-3.5,8-8v-48.1C287.6,103.7,287.6,103.6,287.6,103.5z M286.4,151.9c0,3.7-3,6.7-6.7,6.7H79.1c-3.7,0-6.7-3.1-6.7-6.7v-48.1
		c0-3.7,3.1-6.7,6.7-6.7h200.5c3.7,0,6.7,3.1,6.7,6.7V151.9z"/>
	<g>
		
			<linearGradient id="SVGID_1_" gradientUnits="userSpaceOnUse" x1="-201.0962" y1="174.7079" x2="-202.5499" y2="173.2543" gradientTransform="matrix(18.5185 0 0 -18.5185 3830.063 3345.0254)">
			<stop  offset="0" style="stop-color:#4998D3"/>
			<stop  offset="7.000001e-03" style="stop-color:#4A99D3"/>
			<stop  offset="0.26" style="stop-color:#42BAEB"/>
			<stop  offset="0.512" style="stop-color:#41C7F2"/>
			<stop  offset="0.76" style="stop-color:#56C9E9"/>
			<stop  offset="1" style="stop-color:#5BCAE8"/>
		</linearGradient>
		<path class="st2" d="M87.8,107.8c-0.5,0.5-0.6,1.3-0.6,2.2v35.5c0,1,0.3,1.8,0.8,2.2l0.2,0.2L108,128v-0.3L87.8,107.8z"/>
		
			<linearGradient id="SVGID_2_" gradientUnits="userSpaceOnUse" x1="-200.0537" y1="173.7252" x2="-202.1496" y2="173.7252" gradientTransform="matrix(18.5185 0 0 -18.5185 3830.063 3345.0254)">
			<stop  offset="0" style="stop-color:#FEE000"/>
			<stop  offset="0.409" style="stop-color:#FEBD11"/>
			<stop  offset="0.775" style="stop-color:#FAA51A"/>
			<stop  offset="1" style="stop-color:#F99C1C"/>
		</linearGradient>
		<path class="st3" d="M114.4,134.7l-6.6-6.6v-0.5l6.6-6.6l0.2,0.2l7.9,4.5c2.2,1.3,2.2,3.4,0,4.7L114.4,134.7z"/>
		
			<linearGradient id="SVGID_3_" gradientUnits="userSpaceOnUse" x1="-200.8346" y1="173.5317" x2="-202.8059" y2="171.5605" gradientTransform="matrix(18.5185 0 0 -18.5185 3830.063 3345.0254)">
			<stop  offset="0" style="stop-color:#EF4049"/>
			<stop  offset="1" style="stop-color:#C31E63"/>
		</linearGradient>
		<path class="st4" d="M114.6,134.6l-6.7-6.7l-20,20.1c0.8,0.8,1.9,0.8,3.4,0.2L114.6,134.6"/>
		
			<linearGradient id="SVGID_4_" gradientUnits="userSpaceOnUse" x1="-202.3554" y1="175.4438" x2="-201.4751" y2="174.5635" gradientTransform="matrix(18.5185 0 0 -18.5185 3830.063 3345.0254)">
			<stop  offset="0" style="stop-color:#32A072"/>
			<stop  offset="6.900000e-02" style="stop-color:#2DA771"/>
			<stop  offset="0.476" style="stop-color:#4BBA71"/>
			<stop  offset="0.801" style="stop-color:#5EBD6B"/>
			<stop  offset="1" style="stop-color:#66BE69"/>
		</linearGradient>
		<path class="st5" d="M114.6,121.1l-23.4-13.3c-1.4-0.8-2.6-0.6-3.4,0.2l20,19.9L114.6,121.1L114.6,121.1z"/>
		<path class="st6" d="M114.4,134.4l-23.3,13.1c-1.3,0.8-2.4,0.6-3.2,0l-0.2,0.2l0.2,0.2c0.8,0.6,1.9,0.8,3.2,0L114.4,134.4z"/>
		<path class="st7" d="M87.8,147.5c-0.5-0.5-0.6-1.3-0.6-2.2v0.2c0,1,0.3,1.8,0.8,2.2v-0.2H87.8L87.8,147.5z M122.4,129.9l-8,4.5
			l0.2,0.2l7.9-4.5c1.1-0.6,1.6-1.4,1.6-2.3C124,128.6,123.4,129.3,122.4,129.9z"/>
		<path class="st8" d="M91.2,107.9l31.3,17.8c1,0.6,1.6,1.3,1.6,2.1c0-0.8-0.5-1.6-1.6-2.2l-31.3-17.8c-2.2-1.3-4-0.3-4,2.2v0.2
			C87.1,107.8,88.9,106.6,91.2,107.9z"/>
	</g>
</g>
</svg>
