<svg style="fill: #ffffff;" width="40px" height="40px" viewBox="0 0 416 341" version="1.1" xmlns="http://www.w3.org/2000/svg" xmlns:xlink="http://www.w3.org/1999/xlink">
    <!-- Generator: Sketch 61.2 (89653) - https://sketch.com -->
    <title>Group 2</title>
    <desc>Created with Sketch.</desc>
    <g id="Page-1" stroke="none" stroke-width="1" fill="#ffffff" fill-rule="evenodd">
        <g id="Artboard" transform="translate(-39.000000, -46.000000)">
            <g id="Group-2" transform="translate(38.000000, 46.000000)">
                <text id="EXCALIDRAW" font-family="FGVirgil, FG Virgil" font-size="60" font-weight="normal" fill="#ffffff">
                    <tspan x="0" y="334">EXCALIDRAW</tspan>
                </text>
                <g id="excalidraw-final" transform="translate(158.000000, 0.000000)" fill="#ffffff" fill-rule="nonzero">
                    <g id="Group" transform="translate(54.000000, 134.500000) scale(-1, 1) rotate(-180.000000) translate(-54.000000, -134.500000) translate(0.000000, 0.100000)">
                        <path d="M39.3,264.2 C31.9,258.3 20.5,248.3 11.5,239.7 L4.4,233 L5.7,224.2 C6.4,219.4 7.7,210 8.5,203.4 C9.4,196.8 10.3,190.6 10.6,189.7 C11,188.5 10.6,187.9 9.5,187.9 C7.6,187.9 7.5,188.4 12.7,171.9 C14.6,165.6 16.4,159.8 16.6,159.2 C16.8,158.5 17.6,158.2 18.5,158.5 C19.4,158.9 19.9,159.7 19.6,160.4 C19.3,161.2 19.8,162 20.6,162.3 C21.7,162.7 21.6,163.5 19.9,166.4 C17.2,170.9 10.3,209.3 9.9,221.7 C9.6,230.5 9.6,230.6 13.3,235.6 C16.9,240.5 25.2,247.9 38,257.3 C41.6,260 45.2,263 46.2,264 C47.7,265.8 48.4,265.3 61,251.9 C68.3,244.2 76.4,236.3 79,234.3 L83.8,230.7 L80.1,222.9 C78.1,218.7 70,202.5 62,187.1 C45.3,154.7 48.7,157.8 29.3,157.5 L16.7,157.4 L12.5,152.6 C8.1,147.5 7.5,145.6 9.6,142.4 C10.4,141.3 11,139.5 11,138.4 C11,136.6 11.7,136.3 15.7,136.1 C18.2,136 20.5,135.7 20.8,135.4 C21.1,135.1 21.5,128.9 21.8,121.6 L22.2,108.4 L15.5,94 C4.4,70 0,59 0,55.4 C0,53.5 0.4,51.9 0.8,51.9 C1.8,51.9 1.8,52 42.5,136.9 C61.4,176.3 79.3,213.4 82.3,219.5 C85.3,225.6 88,231.2 88.2,232 C88.4,232.9 81.5,239.8 70.5,249.5 C60.6,258.3 51.9,266.3 51.1,267.2 C48.8,270 45.4,269.1 39.3,264.2 Z M42.7,149.2 C38.1,140.3 37.9,140.2 25.3,139.6 C14.2,139 14,139.1 14,141.2 C14,142.4 13.6,144 13.1,144.8 C12.5,145.7 12.9,147.3 14.3,149.5 L16.5,152.9 L26.5,152.9 C32,153 38.3,153.4 40.5,153.8 C42.7,154.2 44.6,154.4 44.8,154.3 C45,154.2 44,151.9 42.7,149.2 Z M34.3,133.2 C33.5,131.1 31.4,126.7 29.7,123.4 C26.9,117.8 26.6,117.6 25.9,119.9 C25.5,121.3 25.2,125.4 25.1,129.1 C25,136.4 24.8,136.3 33.2,136.8 L35.9,136.9 L34.3,133.2 Z" id="Shape"></path>
                        <path d="M42.3,240.4 C40.5,239.1 40,237.8 40,234.5 C40,230.6 40.3,230 43,228.9 C45.7,227.8 46.4,227.9 49.5,230 C53.6,232.8 53.7,233.5 50.7,238 C48.1,241.9 45.5,242.6 42.3,240.4 Z M48,236.8 C49.6,234 48.6,231.9 45.6,231.9 C42.9,231.9 41.7,234.6 43.2,237.3 C44.4,239.5 46.7,239.3 48,236.8 Z" id="Shape"></path>
                        <path d="M105,217.9 C105,217.4 104.4,216.9 103.7,216.9 C103.1,216.9 101.4,214.1 100.1,210.7 C96.1,200.3 56.1,121.2 56,123.7 C56,125 55.4,125.9 54.4,125.9 C53,125.9 52.8,125.1 53.4,121.2 C54,116.7 53.6,115.7 39.4,88.1 C31.4,72.4 22.8,56 20.3,51.6 C17.7,47 15.7,42 15.5,39.9 C15.2,36.3 15.6,35.8 24.3,28.3 C29.3,23.9 35.7,18.4 38.5,15.9 C51.1,4.4 57,-0.2 58.6,0.1 C61,0.5 98.1,39.4 98.2,41.6 C98.2,42.6 96.4,57.8 94.2,75.4 C90.4,105.4 86.8,140.5 87.2,143.9 C87.5,146 86,156.6 84.9,161.2 C84,164.8 84.4,166.3 91.6,182.7 C95.8,192.4 101.3,204.3 103.7,209.1 C106,213.9 108,218.1 108,218.4 C108,218.7 107.3,218.9 106.5,218.9 C105.7,218.9 105,218.5 105,217.9 Z M82,143.2 C83.1,136.2 85.3,119.4 86.9,105.9 C90,81.1 93.6,53.6 94.6,46.6 C95.2,43.1 94.8,42.4 88.3,35.2 C77,22.5 65,10 60.9,6.8 L57.1,3.8 L37.6,22 C19.6,38.6 18.1,40.3 19.2,42.3 C19.8,43.4 24.9,52.7 30.5,62.9 C36.1,73.1 43.5,86.7 46.9,93.1 C50.4,99.6 53.6,105.2 54.2,105.5 C54.9,105.9 55.1,95.8 54.9,74.3 C54.5,42.2 54.6,42.1 57.8,42.8 C58.2,42.8 58.5,59 58.5,78.7 L58.5,114.5 L69,135.5 C74.8,147.1 79.6,156.4 79.8,156.300799 C80,156.2 81,150.3 82,143.2 Z" id="Shape"></path>
                    </g>
                </g>
            </g>
        </g>
    </g>
</svg>
